{
  "accessors": [
    {
      "bufferView": 2,
      "componentType": 5126,
      "count": 1818,
      "max": [
        0.07486408203840256,
        0.034492429345846176,
        0.15369220077991486
      ],
      "min": [
        -0.09532344341278076,
        -0.02437013015151024,
        -0.16975170373916626
      ],
      "type": "VEC3"
    },
    {
      "bufferView": 2,
      "byteOffset": 21816,
      "componentType": 5126,
      "count": 1818,
      "max": [
        1.0,
        1.0,
        1.0
      ],
      "min": [
        -1.0,
        -1.0,
        -1.0
      ],
      "type": "VEC3"
    },
    {
      "bufferView": 1,
      "componentType": 5126,
      "count": 1818,
      "max": [
        0.9989647269248962,
        0.9744812846183777
      ],
      "min": [
        0.011243989691138268,
        0.001366971991956234
      ],
      "type": "VEC2"
    },
    {
      "bufferView": 0,
      "componentType": 5125,
      "count": 5208,
      "type": "SCALAR"
    }
  ],
  "asset": {
    "extras": {
      "author": "Merow (https://sketchfab.com/TehMerow)",
      "license": "CC-BY-4.0 (http://creativecommons.org/licenses/by/4.0/)",
      "source": "https://sketchfab.com/3d-models/walkman-cassete-player-14daacbaf0f94f458851e15dfd717426",
      "title": "Walkman Cassete Player"
    },
    "generator": "Sketchfab-12.66.0",
    "version": "2.0"
  },
  "bufferViews": [
    {
      "buffer": 0,
      "byteLength": 20832,
      "name": "floatBufferViews",
      "target": 34963
    },
    {
      "buffer": 0,
      "byteLength": 14544,
      "byteOffset": 20832,
      "byteStride": 8,
      "name": "floatBufferViews",
      "target": 34962
    },
    {
      "buffer": 0,
      "byteLength": 43632,
      "byteOffset": 35376,
      "byteStride": 12,
      "name": "floatBufferViews",
      "target": 34962
    }
  ],
  "buffers": [
    {
      "byteLength": 79008,
      "uri": "scene.bin"
    }
  ],
  "extensionsUsed": [
    "KHR_materials_transmission"
  ],
  "images": [
    {
      "uri": "textures/walkmen_baseColor.png"
    },
    {
      "uri": "textures/walkmen_metallicRoughness.png"
    },
    {
      "uri": "textures/walkmen_transmission.png"
    }
  ],
  "materials": [
    {
      "alphaMode": "BLEND",
      "extensions": {
        "KHR_materials_transmission": {
          "transmissionFactor": 1.0,
          "transmissionTexture": {
            "index": 2
          }
        }
      },
      "name": "walkmen",
      "pbrMetallicRoughness": {
        "baseColorTexture": {
          "index": 0
        },
        "metallicRoughnessTexture": {
          "index": 1
        }
      }
    }
  ],
  "meshes": [
    {
      "name": "walkmen-material",
      "primitives": [
        {
          "attributes": {
            "NORMAL": 1,
            "POSITION": 0,
            "TEXCOORD_0": 2
          },
          "indices": 3,
          "material": 0,
          "mode": 4
        }
      ]
    }
  ],
  "nodes": [
    {
      "children": [
        1
      ],
      "matrix": [
        0.8296180367469788,
        0.0,
        0.0,
        0.0,
        0.0,
        1.84212209208163e-16,
        -0.8296180367469788,
        0.0,
        0.0,
        0.8296180367469788,
        1.84212209208163e-16,
        0.0,
        0.0,
        0.0,
        0.0,
        1.0
      ],
      "name": "Sketchfab_model"
    },
    {
      "children": [
        2
      ],
      "name": "Collada visual scene group"
    },
    {
      "children": [
        3
      ],
      "name": "walkmen"
    },
    {
      "mesh": 0,
      "name": "walkmen-material"
    }
  ],
  "samplers": [
    {
      "magFilter": 9729,
      "minFilter": 9987,
      "wrapS": 10497,
      "wrapT": 10497
    }
  ],
  "scene": 0,
  "scenes": [
    {
      "name": "Sketchfab_Scene",
      "nodes": [
        0
      ]
    }
  ],
  "textures": [
    {
      "sampler": 0,
      "source": 0
    },
    {
      "sampler": 0,
      "source": 1
    },
    {
      "sampler": 0,
      "source": 2
    }
  ]
}
