{
  "accessors": [
    {
      "bufferView": 3,
      "componentType": 5126,
      "count": 356,
      "max": [
        18.046512603759766,
        46.13288116455078,
        9.301644325256348
      ],
      "min": [
        -18.0465145111084,
        -0.19216999411582947,
        -9.301644325256348
      ],
      "type": "VEC3"
    },
    {
      "bufferView": 3,
      "byteOffset": 4272,
      "componentType": 5126,
      "count": 356,
      "max": [
        1.0,
        1.0,
        0.9205524325370789
      ],
      "min": [
        -1.0,
        -1.0,
        -0.9205524325370789
      ],
      "type": "VEC3"
    },
    {
      "bufferView": 2,
      "componentType": 5126,
      "count": 356,
      "max": [
        0.9820970296859741,
        0.9847559928894043
      ],
      "min": [
        0.01689700037240982,
        0.020519999787211418
      ],
      "type": "VEC2"
    },
    {
      "bufferView": 1,
      "componentType": 5125,
      "count": 954,
      "type": "SCALAR"
    },
    {
      "bufferView": 5,
      "componentType": 5126,
      "count": 55,
      "max": [
        1.0,
        0.2291165441274643,
        0.9984325170516968,
        0.0,
        0.05544470250606537,
        1.000000238418579,
        0.22945359349250793,
        0.0,
        0.9985345005989075,
        0.012417003512382507,
        1.0,
        0.0,
        2.1116714477539063,
        0.0,
        0.0017047711880877614,
        1.0
      ],
      "min": [
        -0.05907606706023216,
        -0.22911737859249115,
        -0.9984323382377625,
        0.0,
        -0.05544469878077507,
        0.973319411277771,
        -0.0028748607728630304,
        0.0,
        -0.9985344409942627,
        -0.00041322436300106347,
        -0.059076063334941864,
        0.0,
        -2.1116714477539063,
        -20.349647521972656,
        -9.754476547241211,
        1.0
      ],
      "type": "MAT4"
    },
    {
      "bufferView": 0,
      "componentType": 5123,
      "count": 356,
      "type": "VEC4"
    },
    {
      "bufferView": 4,
      "componentType": 5126,
      "count": 356,
      "max": [
        1.0,
        0.45146653056144714,
        0.3287000060081482,
        0.0
      ],
      "min": [
        0.3356519937515259,
        0.0,
        0.0,
        0.0
      ],
      "type": "VEC4"
    }
  ],
  "asset": {
    "extras": {
      "author": "THEREALBIGGRAFIS (https://sketchfab.com/THEREALBIGGRAFIS)",
      "license": "CC-BY-4.0 (http://creativecommons.org/licenses/by/4.0/)",
      "source": "https://sketchfab.com/3d-models/strong-bad-694ccc123f3747f9a621d0d3d2c5d08b",
      "title": "Strong Bad"
    },
    "generator": "Sketchfab-14.81.0",
    "version": "2.0"
  },
  "bufferViews": [
    {
      "buffer": 0,
      "byteLength": 2848,
      "byteStride": 8,
      "name": "shortBufferViews",
      "target": 34962
    },
    {
      "buffer": 0,
      "byteLength": 3816,
      "byteOffset": 2848,
      "name": "floatBufferViews",
      "target": 34963
    },
    {
      "buffer": 0,
      "byteLength": 2848,
      "byteOffset": 6664,
      "byteStride": 8,
      "name": "floatBufferViews",
      "target": 34962
    },
    {
      "buffer": 0,
      "byteLength": 8544,
      "byteOffset": 9512,
      "byteStride": 12,
      "name": "floatBufferViews",
      "target": 34962
    },
    {
      "buffer": 0,
      "byteLength": 5696,
      "byteOffset": 18056,
      "byteStride": 16,
      "name": "floatBufferViews",
      "target": 34962
    },
    {
      "buffer": 0,
      "byteLength": 3520,
      "byteOffset": 23752,
      "name": "floatBufferViews"
    }
  ],
  "buffers": [
    {
      "byteLength": 27272,
      "uri": "scene.bin"
    }
  ],
  "images": [
    {
      "uri": "textures/Material_13_baseColor.png"
    }
  ],
  "materials": [
    {
      "doubleSided": true,
      "name": "Material_13",
      "pbrMetallicRoughness": {
        "baseColorTexture": {
          "index": 0
        },
        "metallicFactor": 0.0,
        "roughnessFactor": 0.8929713596497552
      }
    }
  ],
  "meshes": [
    {
      "name": "StrongBadLowPoly_Material #13_0",
      "primitives": [
        {
          "attributes": {
            "JOINTS_0": 5,
            "NORMAL": 1,
            "POSITION": 0,
            "TEXCOORD_0": 2,
            "WEIGHTS_0": 6
          },
          "indices": 3,
          "material": 0,
          "mode": 4
        }
      ]
    }
  ],
  "nodes": [
    {
      "children": [
        1
      ],
      "matrix": [
        1.0,
        0.0,
        0.0,
        0.0,
        0.0,
        2.220446049250313e-16,
        -1.0,
        0.0,
        0.0,
        1.0,
        2.220446049250313e-16,
        0.0,
        0.0,
        0.0,
        0.0,
        1.0
      ],
      "name": "Sketchfab_model"
    },
    {
      "children": [
        2
      ],
      "matrix": [
        0.02539999969303608,
        0.0,
        0.0,
        0.0,
        0.0,
        0.0,
        0.02539999969303608,
        0.0,
        0.0,
        -0.02539999969303608,
        0.0,
        0.0,
        0.0,
        0.0,
        0.0,
        1.0
      ],
      "name": "StrongBadLowPoly.FBX"
    },
    {
      "children": [
        3
      ],
      "name": "RootNode"
    },
    {
      "children": [
        4,
        6,
        5
      ],
      "name": "Object_3"
    },
    {
      "children": [
        7
      ],
      "name": "_rootJoint"
    },
    {
      "matrix": [
        1.0,
        0.0,
        0.0,
        0.0,
        0.0,
        6.123233995736766e-17,
        -1.0,
        0.0,
        0.0,
        1.0,
        6.123233995736766e-17,
        0.0,
        0.0,
        0.0,
        4.235164736271502e-22,
        1.0
      ],
      "name": "Object_5"
    },
    {
      "mesh": 0,
      "name": "Object_6",
      "skin": 0
    },
    {
      "children": [
        8,
        48
      ],
      "name": "root_00",
      "rotation": [
        -1.5695823663008923e-07,
        -0.0,
        0.0,
        1.0
      ],
      "translation": [
        0.0,
        12.014748573303223,
        0.0
      ]
    },
    {
      "children": [
        9
      ],
      "name": "spine1_02",
      "translation": [
        0.0,
        0.6405839920043945,
        0.0
      ]
    },
    {
      "children": [
        10
      ],
      "name": "spine2_03",
      "translation": [
        0.0,
        1.7139959335327148,
        0.09298799932003021
      ]
    },
    {
      "children": [
        11,
        24,
        36
      ],
      "name": "spine3_01",
      "translation": [
        0.0,
        1.878443717956543,
        1.4901161193847656e-08
      ]
    },
    {
      "children": [
        12
      ],
      "name": "neck_04",
      "translation": [
        0.0,
        3.078683853149414,
        -0.08427601307630539
      ]
    },
    {
      "children": [
        13,
        22,
        23
      ],
      "name": "head_05",
      "translation": [
        0.0,
        1.0231914520263672,
        0.0
      ]
    },
    {
      "children": [
        14,
        16,
        18,
        20
      ],
      "name": "strongbad_jaw_06",
      "translation": [
        0.0,
        6.0399017333984375,
        0.0
      ]
    },
    {
      "children": [
        15
      ],
      "name": "strongbad_mouth_R_07",
      "rotation": [
        0.20636692643165588,
        0.0,
        0.0,
        0.9784746766090393
      ],
      "translation": [
        -1.812276005744934,
        -0.2423877716064453,
        8.131715774536133
      ]
    },
    {
      "name": "strongbad_mouth_R_LS_08",
      "rotation": [
        2.7755575615628914e-17,
        0.0,
        0.0,
        1.0
      ]
    },
    {
      "children": [
        17
      ],
      "name": "strongbad_mouth_L_09",
      "rotation": [
        0.20636692643165588,
        0.0,
        0.0,
        0.9784746766090393
      ],
      "translation": [
        1.8129960298538208,
        -0.24465560913085938,
        8.12980842590332
      ]
    },
    {
      "name": "strongbad_mouth_L_LS_010",
      "rotation": [
        2.7755575615628914e-17,
        0.0,
        0.0,
        1.0
      ]
    },
    {
      "children": [
        19
      ],
      "name": "strongbad_mouthUpper_011",
      "rotation": [
        0.20636692643165588,
        0.0,
        0.0,
        0.9784746766090393
      ],
      "translation": [
        0.0,
        1.3364315032958984,
        8.927998542785645
      ]
    },
    {
      "name": "strongbad_mouthUpper_LS_012",
      "rotation": [
        2.7755575615628914e-17,
        0.0,
        0.0,
        1.0
      ]
    },
    {
      "children": [
        21
      ],
      "name": "strongbad_mouthLower_013",
      "rotation": [
        0.20636692643165588,
        0.0,
        0.0,
        0.9784746766090393
      ],
      "translation": [
        0.0,
        -1.8636455535888672,
        7.424136161804199
      ]
    },
    {
      "name": "strongbad_mouthLower_LS_014",
      "rotation": [
        2.7755575615628914e-17,
        0.0,
        0.0,
        1.0
      ]
    },
    {
      "name": "strongbad_eyes_015",
      "translation": [
        0.0,
        14.235443115234375,
        0.0
      ]
    },
    {
      "name": "strongbad_lace_016",
      "rotation": [
        1.4038556628293009e-07,
        0.7511311769485474,
        -0.6601530313491821,
        9.351860086326269e-08
      ],
      "translation": [
        0.0,
        0.7626953125,
        -3.6471240520477295
      ]
    },
    {
      "children": [
        25,
        35
      ],
      "name": "shoulder_L_017",
      "rotation": [
        -0.0794302448630333,
        0.7211304903030396,
        0.08385133743286133,
        0.6831037402153015
      ],
      "scale": [
        0.9999999403953552,
        1.000000238418579,
        1.000000238418579
      ],
      "translation": [
        1.1009880304336548,
        0.18630027770996094,
        0.005795985460281372
      ]
    },
    {
      "children": [
        26,
        34
      ],
      "name": "arm_L_018",
      "rotation": [
        0.11549894511699677,
        0.002465162193402648,
        0.00028719237889163196,
        0.9933046102523804
      ],
      "scale": [
        1.0,
        1.0,
        0.9999999403953552
      ],
      "translation": [
        0.0,
        -9.5367431640625e-07,
        2.487781047821045
      ]
    },
    {
      "children": [
        27,
        33
      ],
      "name": "elbow_L_019",
      "rotation": [
        -2.0571789928291686e-16,
        -0.057521283626556396,
        -3.570457748496058e-15,
        0.9983443021774292
      ],
      "scale": [
        1.000000238418579,
        1.0,
        1.0000001192092896
      ],
      "translation": [
        2.9802322387695313e-08,
        1.9073486328125e-06,
        3.047074794769287
      ]
    },
    {
      "children": [
        28,
        30
      ],
      "name": "wrist_L_020",
      "rotation": [
        5.684341886080802e-14,
        3.72525765790499e-09,
        -3.5527141023169746e-15,
        1.0
      ],
      "translation": [
        -1.1920928955078125e-07,
        0.0,
        3.2160234451293945
      ]
    },
    {
      "children": [
        29
      ],
      "name": "middleF1_L_021",
      "rotation": [
        0.04083111509680748,
        0.027969982475042343,
        -0.0011434473562985659,
        0.9987738728523254
      ],
      "scale": [
        1.000000238418579,
        1.0000001192092896,
        1.0000003576278687
      ],
      "translation": [
        0.1366559863090515,
        0.12970733642578125,
        4.692172050476074
      ]
    },
    {
      "name": "middleF2_L_022",
      "rotation": [
        0.06663857400417328,
        2.203293123848645e-14,
        -4.141985182842898e-15,
        0.9977771639823914
      ],
      "scale": [
        1.0,
        0.9999998807907104,
        0.9999998807907104
      ],
      "translation": [
        -1.4901161193847656e-08,
        -3.552713678800501e-15,
        3.094485282897949
      ]
    },
    {
      "children": [
        31
      ],
      "name": "thumb1_L_023",
      "rotation": [
        1.475957919251647e-12,
        -0.6870338916778564,
        1.3955376567884037e-12,
        0.726625382900238
      ],
      "scale": [
        0.9999998807907104,
        1.0,
        1.000000238418579
      ],
      "translation": [
        -1.3311001062393188,
        -0.2450885772705078,
        2.473203659057617
      ]
    },
    {
      "children": [
        32
      ],
      "name": "thumb2_L_024",
      "rotation": [
        4.440892098500626e-16,
        3.306512753010961e-15,
        7.733255834245685e-23,
        1.0
      ],
      "translation": [
        -9.5367431640625e-07,
        3.552713678800501e-15,
        1.655208945274353
      ]
    },
    {
      "name": "thumb3_L_025",
      "rotation": [
        4.440892098500626e-16,
        3.306512964769198e-15,
        7.150911772035569e-23,
        1.0
      ],
      "translation": [
        -9.5367431640625e-07,
        -3.552713678800501e-15,
        1.9198081493377686
      ]
    },
    {
      "name": "wristTwist_L_026",
      "rotation": [
        5.684341886080802e-14,
        3.72525765790499e-09,
        -3.5527141023169746e-15,
        1.0
      ],
      "translation": [
        -1.1920928955078125e-07,
        3.552713678800501e-15,
        2.894437789916992
      ]
    },
    {
      "name": "elbowTwist_L_027",
      "rotation": [
        4.984080639522381e-13,
        2.1097476543552318e-10,
        -0.00020694726845249534,
        1.0
      ],
      "scale": [
        1.0,
        0.9999998211860657,
        1.0
      ],
      "translation": [
        5.960464477539063e-08,
        0.0,
        2.7423720359802246
      ]
    },
    {
      "name": "shoulderPad_L_028",
      "rotation": [
        0.06371014565229416,
        0.0013778123538941145,
        2.1962307528156089e-07,
        0.9979676008224487
      ],
      "scale": [
        1.0,
        1.0,
        1.0000001192092896
      ],
      "translation": [
        0.023003995418548584,
        0.43448734283447266,
        2.4465603828430176
      ]
    },
    {
      "children": [
        37,
        47
      ],
      "name": "shoulder_R_029",
      "rotation": [
        -0.07942996174097061,
        -0.7211302518844604,
        -0.08385096490383148,
        0.6831040978431702
      ],
      "scale": [
        1.0,
        0.9999998211860657,
        0.9999998807907104
      ],
      "translation": [
        -1.1009880304336548,
        0.18630027770996094,
        0.005795985460281372
      ]
    },
    {
      "children": [
        38,
        46
      ],
      "name": "arm_R_030",
      "rotation": [
        0.11549945920705795,
        -0.0024650979321449995,
        -0.0002872589975595474,
        0.9933045506477356
      ],
      "scale": [
        1.0000001192092896,
        0.9999999403953552,
        1.000000238418579
      ],
      "translation": [
        2.9802322387695313e-08,
        9.5367431640625e-07,
        2.4877800941467285
      ]
    },
    {
      "children": [
        39,
        45
      ],
      "name": "elbow_R_031",
      "rotation": [
        1.5429102180931106e-16,
        0.05752222612500191,
        -2.6778436290093985e-15,
        0.9983442425727844
      ],
      "scale": [
        1.000000238418579,
        1.0,
        1.000000238418579
      ],
      "translation": [
        -1.4901161193847656e-08,
        3.552713678800501e-15,
        3.047077178955078
      ]
    },
    {
      "children": [
        40,
        42
      ],
      "name": "wrist_R_032",
      "rotation": [
        3.0398884355880146e-23,
        -2.6020852139652106e-15,
        -8.881784197001252e-16,
        1.0
      ],
      "translation": [
        0.0,
        0.0,
        3.2160258293151855
      ]
    },
    {
      "children": [
        41
      ],
      "name": "middleF1_R_033",
      "rotation": [
        0.042065076529979706,
        -0.027969514951109886,
        0.001178044592961669,
        0.9987226128578186
      ],
      "translation": [
        -0.1366559863090515,
        0.12970733642578125,
        4.692170143127441
      ]
    },
    {
      "name": "middleF2_R_034",
      "rotation": [
        0.06422177702188492,
        9.046635782074958e-14,
        2.6218637720967775e-14,
        0.9979356527328491
      ],
      "scale": [
        1.0,
        1.000000238418579,
        0.9999999403953552
      ],
      "translation": [
        1.4901161193847656e-08,
        1.9073486328125e-06,
        3.094493865966797
      ]
    },
    {
      "children": [
        43
      ],
      "name": "thumb1_R_035",
      "rotation": [
        4.438544437234514e-22,
        0.6870338320732117,
        -2.945530889448357e-22,
        0.7266254425048828
      ],
      "translation": [
        1.3311002254486084,
        -0.2450885772705078,
        2.473200798034668
      ]
    },
    {
      "children": [
        44
      ],
      "name": "thumb2_R_036",
      "rotation": [
        -1.7763568394002505e-15,
        1.2429866299646167e-14,
        -8.500002128394093e-23,
        1.0
      ],
      "translation": [
        -1.9073486328125e-06,
        -3.552713678800501e-15,
        1.655207633972168
      ]
    },
    {
      "name": "thumb3_R_037",
      "rotation": [
        -1.7763568394002505e-15,
        1.2429866299646167e-14,
        -1.2241394590280755e-22,
        1.0
      ],
      "translation": [
        0.0,
        3.552713678800501e-15,
        1.9198088645935059
      ]
    },
    {
      "name": "wristTwist_R_038",
      "rotation": [
        3.0398884355880146e-23,
        -2.6020852139652106e-15,
        -8.881784197001252e-16,
        1.0
      ],
      "translation": [
        5.960464477539063e-08,
        0.0,
        2.8944382667541504
      ]
    },
    {
      "name": "elbowTwist_R_039",
      "rotation": [
        4.71563218161497e-13,
        1.9336968137828592e-10,
        0.00020700000459328294,
        1.0
      ],
      "scale": [
        1.000000238418579,
        1.0000001192092896,
        1.000000238418579
      ],
      "translation": [
        -2.7755575615628914e-17,
        0.0,
        2.7423744201660156
      ]
    },
    {
      "name": "shoulderPad_R_040",
      "rotation": [
        0.06371016055345535,
        -0.0013782489113509655,
        -1.6788760603958508e-07,
        0.9979676008224487
      ],
      "scale": [
        1.000000238418579,
        1.0000001192092896,
        1.000000238418579
      ],
      "translation": [
        -0.023004010319709778,
        0.43448448181152344,
        2.4465599060058594
      ]
    },
    {
      "children": [
        49,
        55
      ],
      "name": "pelvis_041",
      "translation": [
        0.0,
        -0.7796878814697266,
        0.0
      ]
    },
    {
      "children": [
        50
      ],
      "name": "leg_L_042",
      "rotation": [
        0.0027362387627363205,
        0.046845968812704086,
        0.02763519622385502,
        0.9985160231590271
      ],
      "translation": [
        1.5431040525436401,
        -1.0135431289672852,
        -0.11743198335170746
      ]
    },
    {
      "children": [
        51
      ],
      "name": "knee_L_043",
      "rotation": [
        8.673617379884035e-19,
        -1.2951204553246498e-09,
        4.119968255444917e-18,
        1.0
      ],
      "translation": [
        -4.440892098500626e-16,
        -2.952939033508301,
        0.2554920017719269
      ]
    },
    {
      "children": [
        52
      ],
      "name": "ankle_L_044",
      "rotation": [
        2.3621127809292375e-07,
        0.027200160548090935,
        -0.027779951691627502,
        0.9992439150810242
      ],
      "scale": [
        0.9999999403953552,
        0.9999999403953552,
        0.9999999403953552
      ],
      "translation": [
        -2.384185791015625e-07,
        -2.512981414794922,
        -0.24865202605724335
      ]
    },
    {
      "children": [
        53
      ],
      "name": "heel_L_045",
      "rotation": [
        -0.16110779345035553,
        8.147469365837878e-09,
        1.0493879099016112e-09,
        0.9869368076324463
      ],
      "scale": [
        0.9999998807907104,
        0.9999999403953552,
        0.9999999403953552
      ],
      "translation": [
        -1.1920928955078125e-07,
        -3.8467819690704346,
        -1.1168999671936035
      ]
    },
    {
      "children": [
        54
      ],
      "name": "ball_L_046",
      "rotation": [
        0.34694111347198486,
        0.0006822620052844286,
        -0.0018378673121333122,
        0.9378849864006042
      ],
      "scale": [
        1.0000003576278687,
        1.0000004768371582,
        1.0000003576278687
      ],
      "translation": [
        -1.1920928955078125e-07,
        0.0020540952682495117,
        3.9629883766174316
      ]
    },
    {
      "name": "toe_L_047",
      "rotation": [
        -0.19130899012088776,
        -1.6639161160014737e-08,
        -8.343179480618801e-09,
        0.9815298914909363
      ],
      "scale": [
        1.0,
        0.9999998211860657,
        0.9999999403953552
      ],
      "translation": [
        2.220446049250313e-16,
        -0.0022330284118652344,
        2.5121169090270996
      ]
    },
    {
      "children": [
        56
      ],
      "name": "leg_R_048",
      "rotation": [
        0.0027362415567040443,
        -0.04684586822986603,
        -0.02763519249856472,
        0.9985160231590271
      ],
      "translation": [
        -1.5431040525436401,
        -1.0135431289672852,
        -0.11743198335170746
      ]
    },
    {
      "children": [
        57
      ],
      "name": "knee_R_049",
      "rotation": [
        1.1641533570472262e-10,
        -2.750311978161335e-09,
        1.862645149230957e-09,
        1.0
      ],
      "scale": [
        1.0,
        0.9999999403953552,
        0.9999998807907104
      ],
      "translation": [
        -4.440892098500626e-16,
        -2.9529366493225098,
        0.2554919421672821
      ]
    },
    {
      "children": [
        58
      ],
      "name": "ankle_R_050",
      "rotation": [
        2.4103960072352493e-07,
        -0.02720022015273571,
        0.027780069038271904,
        0.9992439150810242
      ],
      "scale": [
        0.9999999403953552,
        1.000000238418579,
        1.000000238418579
      ],
      "translation": [
        0.0,
        -2.5129809379577637,
        -0.24865205585956573
      ]
    },
    {
      "children": [
        59
      ],
      "name": "heel_R_051",
      "rotation": [
        -0.1611078381538391,
        -6.152096054812262e-10,
        7.69392674571101e-11,
        0.9869368076324463
      ],
      "scale": [
        1.0000001192092896,
        1.000000238418579,
        1.0000001192092896
      ],
      "translation": [
        4.440892098500626e-16,
        -3.8467824459075928,
        -1.1168999671936035
      ]
    },
    {
      "children": [
        60
      ],
      "name": "ball_R_052",
      "rotation": [
        0.34694111347198486,
        0.0006822636933065951,
        -0.001837872201576829,
        0.9378848671913147
      ],
      "scale": [
        1.0000001192092896,
        0.9999998807907104,
        0.9999998807907104
      ],
      "translation": [
        -1.0728836059570313e-06,
        0.002053976058959961,
        3.9629878997802734
      ]
    },
    {
      "name": "toe_R_053",
      "rotation": [
        -0.19130899012088776,
        1.1755720841222228e-08,
        -2.8087627779171953e-09,
        0.9815298914909363
      ],
      "scale": [
        0.9999998807907104,
        0.9999997615814209,
        1.0
      ],
      "translation": [
        -8.344650268554688e-07,
        -0.0022325515747070313,
        2.5121164321899414
      ]
    }
  ],
  "samplers": [
    {
      "magFilter": 9729,
      "minFilter": 9987,
      "wrapS": 10497,
      "wrapT": 10497
    }
  ],
  "scene": 0,
  "scenes": [
    {
      "name": "Sketchfab_Scene",
      "nodes": [
        0
      ]
    }
  ],
  "skins": [
    {
      "inverseBindMatrices": 4,
      "joints": [
        4,
        7,
        8,
        9,
        10,
        11,
        12,
        13,
        14,
        15,
        16,
        17,
        18,
        19,
        20,
        21,
        22,
        23,
        24,
        25,
        26,
        27,
        28,
        29,
        30,
        31,
        32,
        33,
        34,
        35,
        36,
        37,
        38,
        39,
        40,
        41,
        42,
        43,
        44,
        45,
        46,
        47,
        48,
        49,
        50,
        51,
        52,
        53,
        54,
        55,
        56,
        57,
        58,
        59,
        60
      ],
      "skeleton": 4
    }
  ],
  "textures": [
    {
      "sampler": 0,
      "source": 0
    }
  ]
}
