{
  "asset": {
    "generator": "glTF-Transform v3.9.0",
    "version": "2.0",
    "extras": {
      "author": "NGResource (https://sketchfab.com/T0MFULP)",
      "license": "CC-BY-4.0 (http://creativecommons.org/licenses/by/4.0/)",
      "source": "https://sketchfab.com/3d-models/isaac-9ec61d883eb04c79981cada6eb300af7",
      "title": "Isaac"
    }
  },
  "accessors": [
    {
      "type": "VEC3",
      "componentType": 5126,
      "count": 841,
      "max": [
        0.010881000198423862,
        0.005218000151216984,
        -0.00004400000034365803
      ],
      "min": [
        -0.010851000435650349,
        -0.0045090001076459885,
        -0.01308200042694807
      ],
      "bufferView": 0,
      "byteOffset": 0
    },
    {
      "type": "VEC3",
      "componentType": 5126,
      "count": 841,
      "bufferView": 0,
      "byteOffset": 12
    },
    {
      "type": "VEC2",
      "componentType": 5126,
      "count": 841,
      "bufferView": 0,
      "byteOffset": 24
    },
    {
      "type": "VEC3",
      "componentType": 5126,
      "count": 968,
      "max": [
        0.017312999814748764,
        0.01558700017631054,
        -0.011603999882936478
      ],
      "min": [
        -0.017312999814748764,
        -0.015343000181019306,
        -0.04284900054335594
      ],
      "bufferView": 1,
      "byteOffset": 0
    },
    {
      "type": "VEC3",
      "componentType": 5126,
      "count": 968,
      "bufferView": 1,
      "byteOffset": 12
    },
    {
      "type": "VEC2",
      "componentType": 5126,
      "count": 968,
      "bufferView": 1,
      "byteOffset": 24
    },
    {
      "type": "SCALAR",
      "componentType": 5125,
      "count": 4506,
      "bufferView": 2,
      "byteOffset": 0
    },
    {
      "type": "SCALAR",
      "componentType": 5125,
      "count": 5232,
      "bufferView": 2,
      "byteOffset": 18024
    }
  ],
  "bufferViews": [
    {
      "buffer": 0,
      "byteOffset": 0,
      "byteLength": 26912,
      "byteStride": 32,
      "target": 34962
    },
    {
      "buffer": 0,
      "byteOffset": 26912,
      "byteLength": 30976,
      "byteStride": 32,
      "target": 34962
    },
    {
      "buffer": 0,
      "byteOffset": 57888,
      "byteLength": 38952,
      "target": 34963
    }
  ],
  "samplers": [
    {
      "magFilter": 9729,
      "minFilter": 9987,
      "wrapS": 10497,
      "wrapT": 10497
    },
    {
      "magFilter": 9729,
      "minFilter": 9987,
      "wrapS": 33648,
      "wrapT": 33648
    }
  ],
  "textures": [
    {
      "source": 0,
      "sampler": 0
    },
    {
      "source": 0,
      "sampler": 1
    }
  ],
  "images": [
    {
      "mimeType": "image/png",
      "uri": "textures/Isaac_diffuse.png"
    }
  ],
  "buffers": [
    {
      "uri": "scene.bin",
      "byteLength": 96840
    }
  ],
  "materials": [
    {
      "name": "Isaac",
      "doubleSided": true,
      "pbrMetallicRoughness": {
        "roughnessFactor": 0.690035,
        "metallicFactor": 0,
        "baseColorTexture": {
          "index": 0
        }
      },
      "extensions": {
        "KHR_materials_ior": {
          "ior": 1000
        },
        "KHR_materials_specular": {
          "specularColorFactor": [
            0,
            0,
            0
          ]
        }
      }
    },
    {
      "name": "Isaac.001",
      "doubleSided": true,
      "pbrMetallicRoughness": {
        "metallicFactor": 0,
        "baseColorTexture": {
          "index": 1
        }
      },
      "extensions": {
        "KHR_materials_ior": {
          "ior": 1000
        },
        "KHR_materials_specular": {
          "specularColorFactor": [
            0,
            0,
            0
          ]
        }
      }
    }
  ],
  "meshes": [
    {
      "name": "Object_0",
      "primitives": [
        {
          "attributes": {
            "NORMAL": 1,
            "POSITION": 0,
            "TEXCOORD_0": 2
          },
          "mode": 4,
          "material": 0,
          "indices": 6
        }
      ]
    },
    {
      "name": "Object_1",
      "primitives": [
        {
          "attributes": {
            "NORMAL": 4,
            "POSITION": 3,
            "TEXCOORD_0": 5
          },
          "mode": 4,
          "material": 1,
          "indices": 7
        }
      ]
    }
  ],
  "nodes": [
    {
      "name": "Sketchfab_model",
      "rotation": [
        -0.7071067811865475,
        0,
        0,
        0.7071067811865476
      ],
      "children": [
        1
      ]
    },
    {
      "name": "root",
      "children": [
        2
      ]
    },
    {
      "name": "GLTF_SceneRootNode",
      "rotation": [
        0.7071067811865475,
        0,
        0,
        0.7071067811865476
      ],
      "children": [
        3,
        5
      ]
    },
    {
      "name": "Isaac_FIXED_RIGGED_body_isaac_0_2",
      "rotation": [
        0.7071068407911909,
        0,
        0,
        0.7071067215818992
      ],
      "scale": [
        124.16541290283203,
        124.16541290283203,
        124.16541290283203
      ],
      "children": [
        4
      ]
    },
    {
      "name": "Object_4",
      "mesh": 0
    },
    {
      "name": "Isaac_FIXED_RIGGED_head_isaac_0_3",
      "translation": [
        0,
        0.2956821024417877,
        0
      ],
      "rotation": [
        0.7071068407911909,
        0,
        0,
        0.7071067215818992
      ],
      "scale": [
        105.2672348022461,
        105.2672348022461,
        105.2672348022461
      ],
      "children": [
        6
      ]
    },
    {
      "name": "Object_6",
      "mesh": 1
    }
  ],
  "scenes": [
    {
      "name": "Sketchfab_Scene",
      "nodes": [
        0
      ]
    }
  ],
  "scene": 0,
  "extensionsUsed": [
    "KHR_materials_ior",
    "KHR_materials_specular"
  ]
}