{
  "accessors": [
    {
      "bufferView": 2,
      "componentType": 5126,
      "count": 841,
      "max": [
        0.010881000198423862,
        0.005218000151216984,
        -4.400000034365803e-05
      ],
      "min": [
        -0.010851000435650349,
        -0.0045090001076459885,
        -0.01308200042694807
      ],
      "type": "VEC3"
    },
    {
      "bufferView": 2,
      "byteOffset": 10092,
      "componentType": 5126,
      "count": 841,
      "max": [
        0.9881131052970886,
        0.9999226927757263,
        1.0
      ],
      "min": [
        -0.9878070950508118,
        -0.9997590184211731,
        -0.9990924596786499
      ],
      "type": "VEC3"
    },
    {
      "bufferView": 1,
      "componentType": 5126,
      "count": 841,
      "max": [
        0.5729510188102722,
        0.9878730177879333
      ],
      "min": [
        0.015173999592661858,
        0.5910300016403198
      ],
      "type": "VEC2"
    },
    {
      "bufferView": 0,
      "componentType": 5125,
      "count": 4506,
      "type": "SCALAR"
    },
    {
      "bufferView": 2,
      "byteOffset": 20184,
      "componentType": 5126,
      "count": 968,
      "max": [
        0.017312999814748764,
        0.01558700017631054,
        -0.011603999882936478
      ],
      "min": [
        -0.017312999814748764,
        -0.015343000181019306,
        -0.04284900054335594
      ],
      "type": "VEC3"
    },
    {
      "bufferView": 2,
      "byteOffset": 31800,
      "componentType": 5126,
      "count": 968,
      "max": [
        1.0,
        0.9999419450759888,
        0.9999366998672485
      ],
      "min": [
        -1.0,
        -0.999634861946106,
        -1.0
      ],
      "type": "VEC3"
    },
    {
      "bufferView": 1,
      "byteOffset": 6728,
      "componentType": 5126,
      "count": 968,
      "max": [
        0.9495729804039001,
        0.9844059944152832
      ],
      "min": [
        0.06265100091695786,
        0.011881000362336636
      ],
      "type": "VEC2"
    },
    {
      "bufferView": 0,
      "byteOffset": 18024,
      "componentType": 5125,
      "count": 5232,
      "type": "SCALAR"
    }
  ],
  "asset": {
    "extras": {
      "author": "NGResource (https://sketchfab.com/T0MFULP)",
      "license": "CC-BY-4.0 (http://creativecommons.org/licenses/by/4.0/)",
      "source": "https://sketchfab.com/3d-models/isaac-9ec61d883eb04c79981cada6eb300af7",
      "title": "Isaac"
    },
    "generator": "Sketchfab-13.74.0",
    "version": "2.0"
  },
  "bufferViews": [
    {
      "buffer": 0,
      "byteLength": 38952,
      "name": "floatBufferViews",
      "target": 34963
    },
    {
      "buffer": 0,
      "byteLength": 14472,
      "byteOffset": 38952,
      "byteStride": 8,
      "name": "floatBufferViews",
      "target": 34962
    },
    {
      "buffer": 0,
      "byteLength": 43416,
      "byteOffset": 53424,
      "byteStride": 12,
      "name": "floatBufferViews",
      "target": 34962
    }
  ],
  "buffers": [
    {
      "byteLength": 96840,
      "uri": "scene.bin"
    }
  ],
  "extensionsRequired": [
    "KHR_materials_pbrSpecularGlossiness"
  ],
  "extensionsUsed": [
    "KHR_materials_pbrSpecularGlossiness"
  ],
  "images": [
    {
      "uri": "textures/Isaac_diffuse.png"
    }
  ],
  "materials": [
    {
      "doubleSided": true,
      "extensions": {
        "KHR_materials_pbrSpecularGlossiness": {
          "diffuseFactor": [
            1.0,
            1.0,
            1.0,
            1.0
          ],
          "diffuseTexture": {
            "index": 0
          },
          "glossinessFactor": 0.30996500000000005,
          "specularFactor": [
            0.0,
            0.0,
            0.0
          ]
        }
      },
      "name": "Isaac"
    },
    {
      "doubleSided": true,
      "extensions": {
        "KHR_materials_pbrSpecularGlossiness": {
          "diffuseFactor": [
            1.0,
            1.0,
            1.0,
            1.0
          ],
          "diffuseTexture": {
            "index": 1
          },
          "glossinessFactor": 0.0,
          "specularFactor": [
            0.0,
            0.0,
            0.0
          ]
        }
      },
      "name": "Isaac.001"
    }
  ],
  "meshes": [
    {
      "name": "Object_0",
      "primitives": [
        {
          "attributes": {
            "NORMAL": 1,
            "POSITION": 0,
            "TEXCOORD_0": 2
          },
          "indices": 3,
          "material": 0,
          "mode": 4
        }
      ]
    },
    {
      "name": "Object_1",
      "primitives": [
        {
          "attributes": {
            "NORMAL": 5,
            "POSITION": 4,
            "TEXCOORD_0": 6
          },
          "indices": 7,
          "material": 1,
          "mode": 4
        }
      ]
    }
  ],
  "nodes": [
    {
      "children": [
        1
      ],
      "matrix": [
        1.0,
        0.0,
        0.0,
        0.0,
        0.0,
        2.220446049250313e-16,
        -1.0,
        0.0,
        0.0,
        1.0,
        2.220446049250313e-16,
        0.0,
        0.0,
        0.0,
        0.0,
        1.0
      ],
      "name": "Sketchfab_model"
    },
    {
      "children": [
        2
      ],
      "name": "root"
    },
    {
      "children": [
        3,
        5
      ],
      "matrix": [
        1.0,
        0.0,
        0.0,
        0.0,
        0.0,
        2.220446049250313e-16,
        1.0,
        0.0,
        0.0,
        -1.0,
        2.220446049250313e-16,
        0.0,
        0.0,
        0.0,
        0.0,
        1.0
      ],
      "name": "GLTF_SceneRootNode"
    },
    {
      "children": [
        4
      ],
      "matrix": [
        124.16541290283203,
        0.0,
        0.0,
        0.0,
        0.0,
        -2.0932723750211535e-05,
        124.16541290283027,
        0.0,
        0.0,
        -124.16541290283027,
        -2.0932723750211535e-05,
        0.0,
        0.0,
        0.0,
        0.0,
        1.0
      ],
      "name": "Isaac_FIXED_RIGGED_body_isaac_0_2"
    },
    {
      "mesh": 0,
      "name": "Object_4"
    },
    {
      "children": [
        6
      ],
      "matrix": [
        105.2672348022461,
        0.0,
        0.0,
        0.0,
        0.0,
        -1.7746729097486147e-05,
        105.2672348022446,
        0.0,
        0.0,
        -105.2672348022446,
        -1.7746729097486147e-05,
        0.0,
        0.0,
        0.2956821024417877,
        0.0,
        1.0
      ],
      "name": "Isaac_FIXED_RIGGED_head_isaac_0_3"
    },
    {
      "mesh": 1,
      "name": "Object_6"
    }
  ],
  "samplers": [
    {
      "magFilter": 9729,
      "minFilter": 9987,
      "wrapS": 10497,
      "wrapT": 10497
    },
    {
      "magFilter": 9729,
      "minFilter": 9987,
      "wrapS": 33648,
      "wrapT": 33648
    }
  ],
  "scene": 0,
  "scenes": [
    {
      "name": "Sketchfab_Scene",
      "nodes": [
        0
      ]
    }
  ],
  "textures": [
    {
      "sampler": 0,
      "source": 0
    },
    {
      "sampler": 1,
      "source": 0
    }
  ]
}
